# xmcd
#
# Track frame offsets:
#	150
#	16089
#	28780
#	44088
#	56878
#	74737
#	91146
#	106407
#	118790
#	135970
#	155767
#	172198
#	188239
#
# Disc length: 2720 seconds
# Revision: 3
# Processed by: cddbd v1.5.2PL0 Copyright (c) Steve Scherf et al.
# Submitted via: dBpowerAMP V12.0
#
DISCID=bc0a9e0d
DTITLE=Various Artist - All Jacked Up (Target Edition)
DYEAR=2005
DGENRE=Country
TTITLE0=Gretchen Wilson - All Jacked Up
TTITLE1=Gretchen Wilson - California Girls
TTITLE2=Gretchen Wilson - Full Time Job
TTITLE3=Gretchen Wilson - Skoal Ring
TTITLE4=Gretchen Wilson - He Ain't Even Cold Yet
TTITLE5=Gretchen Wilson - One Bud Wiser
TTITLE6=Gretchen Wilson - Politically Uncorrect
TTITLE7=Gretchen Wilson - I Don't Feel Like Loving You Today
TTITLE8=Gretchen Wilson - Rebel Child
TTITLE9=Gretchen Wilson - Raining On Me
TTITLE10=Gretchen Wilson - Not Bad For A Bartender
TTITLE11=Gretchen Wilson - Good Morning Heartache
TTITLE12=Gretchen Wilson and Kid Rock - The Other Side Of Me
EXTD=
EXTT0=
EXTT1=
EXTT2=
EXTT3=
EXTT4=
EXTT5=
EXTT6=
EXTT7=
EXTT8=
EXTT9=
EXTT10=
EXTT11=
EXTT12=
PLAYORDER=
